{
  "accessors": [
    {
      "bufferView": 2,
      "componentType": 5126,
      "count": 5476,
      "max": [
        94467.9453125,
        94362.03125,
        95570.359375
      ],
      "min": [
        0.0,
        0.0,
        0.0
      ],
      "type": "VEC3"
    },
    {
      "bufferView": 2,
      "byteOffset": 65712,
      "componentType": 5126,
      "count": 5476,
      "max": [
        0.999944269657135,
        0.9996297955513,
        0.9996548891067505
      ],
      "min": [
        -0.9999433755874634,
        -0.9995152354240417,
        -0.9998127818107605
      ],
      "type": "VEC3"
    },
    {
      "bufferView": 1,
      "componentType": 5126,
      "count": 5476,
      "max": [
        0.0,
        0.0
      ],
      "min": [
        0.0,
        0.0
      ],
      "type": "VEC2"
    },
    {
      "bufferView": 0,
      "componentType": 5125,
      "count": 32832,
      "type": "SCALAR"
    },
    {
      "bufferView": 2,
      "byteOffset": 131424,
      "componentType": 5126,
      "count": 6432,
      "max": [
        72757.7890625,
        57208.953125,
        81677.609375
      ],
      "min": [
        22398.59375,
        35247.6171875,
        7683.4228515625
      ],
      "type": "VEC3"
    },
    {
      "bufferView": 2,
      "byteOffset": 208608,
      "componentType": 5126,
      "count": 6432,
      "max": [
        0.998456597328186,
        0.9973440766334534,
        0.99966961145401
      ],
      "min": [
        -0.9997044801712036,
        -0.9971683025360107,
        -0.9999349117279053
      ],
      "type": "VEC3"
    },
    {
      "bufferView": 1,
      "byteOffset": 43808,
      "componentType": 5126,
      "count": 6432,
      "max": [
        0.0,
        0.0
      ],
      "min": [
        0.0,
        0.0
      ],
      "type": "VEC2"
    },
    {
      "bufferView": 0,
      "byteOffset": 131328,
      "componentType": 5125,
      "count": 38592,
      "type": "SCALAR"
    },
    {
      "bufferView": 2,
      "byteOffset": 285792,
      "componentType": 5126,
      "count": 3006,
      "max": [
        85661.703125,
        79041.0703125,
        85343.5234375
      ],
      "min": [
        5053.3125,
        2292.0390625,
        4485.751953125
      ],
      "type": "VEC3"
    },
    {
      "bufferView": 2,
      "byteOffset": 321864,
      "componentType": 5126,
      "count": 3006,
      "max": [
        0.9799996018409729,
        0.997317910194397,
        0.9998900294303894
      ],
      "min": [
        -0.9993613362312317,
        -0.9966028928756714,
        -0.9208770990371704
      ],
      "type": "VEC3"
    },
    {
      "bufferView": 1,
      "byteOffset": 95264,
      "componentType": 5126,
      "count": 3006,
      "max": [
        1.0,
        1.0
      ],
      "min": [
        0.0,
        0.0
      ],
      "type": "VEC2"
    },
    {
      "bufferView": 0,
      "byteOffset": 285696,
      "componentType": 5125,
      "count": 12192,
      "type": "SCALAR"
    },
    {
      "bufferView": 2,
      "byteOffset": 357936,
      "componentType": 5126,
      "count": 1452,
      "max": [
        83630.390625,
        64319.26953125,
        88296.2734375
      ],
      "min": [
        7863.84375,
        21161.0,
        6480.5859375
      ],
      "type": "VEC3"
    },
    {
      "bufferView": 2,
      "byteOffset": 375360,
      "componentType": 5126,
      "count": 1452,
      "max": [
        0.9999999403953552,
        0.9978770017623901,
        0.9989445209503174
      ],
      "min": [
        -0.9995734095573425,
        -0.9997895359992981,
        -0.9999130964279175
      ],
      "type": "VEC3"
    },
    {
      "bufferView": 1,
      "byteOffset": 119312,
      "componentType": 5126,
      "count": 1452,
      "max": [
        1.0,
        1.0
      ],
      "min": [
        0.0,
        0.0
      ],
      "type": "VEC2"
    },
    {
      "bufferView": 0,
      "byteOffset": 334464,
      "componentType": 5125,
      "count": 3663,
      "type": "SCALAR"
    }
  ],
  "asset": {
    "extras": {
      "author": "tindautucoin24h (https://sketchfab.com/tindautucoin24h)",
      "license": "CC-BY-4.0 (http://creativecommons.org/licenses/by/4.0/)",
      "source": "https://sketchfab.com/3d-models/uc-nhan-ban-thu-nghiem-libra-tu-mang-facebook-bb435e8393204c8a9f6a424552cd39ba",
      "title": "Úc nhận bản thử nghiệm Libra từ mạng Facebook"
    },
    "generator": "Sketchfab-12.68.0",
    "version": "2.0"
  },
  "bufferViews": [
    {
      "buffer": 0,
      "byteLength": 349116,
      "name": "floatBufferViews",
      "target": 34963
    },
    {
      "buffer": 0,
      "byteLength": 130928,
      "byteOffset": 349116,
      "byteStride": 8,
      "name": "floatBufferViews",
      "target": 34962
    },
    {
      "buffer": 0,
      "byteLength": 392784,
      "byteOffset": 480044,
      "byteStride": 12,
      "name": "floatBufferViews",
      "target": 34962
    }
  ],
  "buffers": [
    {
      "byteLength": 872828,
      "uri": "scene.bin"
    }
  ],
  "materials": [
    {
      "doubleSided": true,
      "name": "StandardF1CC2C",
      "pbrMetallicRoughness": {
        "baseColorFactor": [
          0.945098,
          0.8,
          0.172549,
          1.0
        ],
        "metallicFactor": 0.0
      }
    },
    {
      "doubleSided": true,
      "name": "StandardFFD100",
      "pbrMetallicRoughness": {
        "baseColorFactor": [
          1.0,
          0.819608,
          0.0,
          1.0
        ],
        "metallicFactor": 0.0
      }
    },
    {
      "alphaMode": "BLEND",
      "doubleSided": true,
      "name": "StandardFFD10041",
      "pbrMetallicRoughness": {
        "baseColorFactor": [
          1.0,
          0.819608,
          0.0,
          0.254902
        ],
        "metallicFactor": 0.0
      }
    },
    {
      "doubleSided": true,
      "name": "StandardFFFFFF",
      "pbrMetallicRoughness": {
        "metallicFactor": 0.0
      }
    }
  ],
  "meshes": [
    {
      "name": "Object_0",
      "primitives": [
        {
          "attributes": {
            "NORMAL": 1,
            "POSITION": 0,
            "TEXCOORD_0": 2
          },
          "indices": 3,
          "material": 2,
          "mode": 4
        }
      ]
    },
    {
      "name": "Object_1",
      "primitives": [
        {
          "attributes": {
            "NORMAL": 5,
            "POSITION": 4,
            "TEXCOORD_0": 6
          },
          "indices": 7,
          "material": 3,
          "mode": 4
        }
      ]
    },
    {
      "name": "Object_2",
      "primitives": [
        {
          "attributes": {
            "NORMAL": 9,
            "POSITION": 8,
            "TEXCOORD_0": 10
          },
          "indices": 11,
          "material": 0,
          "mode": 4
        }
      ]
    },
    {
      "name": "Object_3",
      "primitives": [
        {
          "attributes": {
            "NORMAL": 13,
            "POSITION": 12,
            "TEXCOORD_0": 14
          },
          "indices": 15,
          "material": 1,
          "mode": 4
        }
      ]
    }
  ],
  "nodes": [
    {
      "children": [
        1
      ],
      "matrix": [
        1.0,
        0.0,
        0.0,
        0.0,
        0.0,
        2.220446049250313e-16,
        -1.0,
        0.0,
        0.0,
        1.0,
        2.220446049250313e-16,
        0.0,
        0.0,
        0.0,
        0.0,
        1.0
      ],
      "name": "Sketchfab_model"
    },
    {
      "children": [
        2
      ],
      "matrix": [
        1.0,
        0.0,
        0.0,
        0.0,
        0.0,
        1.0,
        0.0,
        0.0,
        0.0,
        0.0,
        1.0,
        0.0,
        -167250.578125,
        -79440.9765625,
        4379.072265625,
        1.0
      ],
      "name": "skfb_offset"
    },
    {
      "children": [
        3,
        4,
        5,
        6
      ],
      "name": "Object_2"
    },
    {
      "mesh": 0,
      "name": "Object_3"
    },
    {
      "mesh": 1,
      "name": "Object_4"
    },
    {
      "mesh": 2,
      "name": "Object_5"
    },
    {
      "mesh": 3,
      "name": "Object_6"
    }
  ],
  "scene": 0,
  "scenes": [
    {
      "name": "Sketchfab_Scene",
      "nodes": [
        0
      ]
    }
  ]
}
